<svg width="1000" height="340" viewBox="0 0 1000 340" fill="none" xmlns="http://www.w3.org/2000/svg">
<path d="M985 0H15C6.71573 0 0 6.71573 0 15V325C0 333.284 6.71573 340 15 340H985C993.284 340 1000 333.284 1000 325V15C1000 6.71573 993.284 0 985 0Z" fill="white"/>
<path d="M100 10H20C14.4772 10 10 14.4772 10 20V100C10 105.523 14.4772 110 20 110H100C105.523 110 110 105.523 110 100V20C110 14.4772 105.523 10 100 10Z" fill="#EEEEEE"/>
<path d="M210 10H130C124.477 10 120 14.4772 120 20V100C120 105.523 124.477 110 130 110H210C215.523 110 220 105.523 220 100V20C220 14.4772 215.523 10 210 10Z" fill="#6D5DFC"/>
<path d="M172.79 91.9998C172.188 91.9998 171.646 91.7892 171.163 91.3679C170.742 90.8863 170.531 90.3446 170.531 89.7427V46.7667L158.148 56.2467C157.726 56.6079 157.274 56.7884 156.792 56.7884C156.129 56.7884 155.527 56.4273 154.985 55.705L149.652 48.753C149.351 48.2715 149.2 47.82 149.2 47.3987C149.2 46.556 149.562 45.924 150.285 45.5027L171.073 29.4319C171.736 29.0105 172.459 28.7998 173.242 28.7998H184.54C185.203 28.7998 185.746 29.0105 186.167 29.4319C186.589 29.8532 186.8 30.3949 186.8 31.057V89.7427C186.8 90.3446 186.589 90.8863 186.167 91.3679C185.746 91.7892 185.203 91.9998 184.54 91.9998H172.79Z" fill="white"/>
<path d="M320 10H240C234.477 10 230 14.4772 230 20V100C230 105.523 234.477 110 240 110H320C325.523 110 330 105.523 330 100V20C330 14.4772 325.523 10 320 10Z" fill="#EEEEEE"/>
<path d="M430 10H350C344.477 10 340 14.4772 340 20V100C340 105.523 344.477 110 350 110H430C435.523 110 440 105.523 440 100V20C440 14.4772 435.523 10 430 10Z" fill="#EEEEEE"/>
<path d="M540 10H460C454.477 10 450 14.4772 450 20V100C450 105.523 454.477 110 460 110H540C545.523 110 550 105.523 550 100V20C550 14.4772 545.523 10 540 10Z" fill="#EEEEEE"/>
<path d="M650 10H570C564.477 10 560 14.4772 560 20V100C560 105.523 564.477 110 570 110H650C655.523 110 660 105.523 660 100V20C660 14.4772 655.523 10 650 10Z" fill="#6D5DFC"/>
<path d="M609.959 89.2581C604.671 89.2581 600.228 88.4404 596.63 86.8049C593.087 85.1695 590.443 83.1524 588.698 80.7538C587.009 78.3007 586.109 75.8475 586 73.3944C586 72.9037 586.164 72.4949 586.491 72.1678C586.872 71.8407 587.308 71.6772 587.799 71.6772H598.511C599.111 71.6772 599.601 71.7862 599.983 72.0042C600.365 72.2223 600.719 72.6312 601.046 73.2308C602.136 76.0656 605.107 77.4829 609.959 77.4829C612.739 77.4829 614.893 76.856 616.419 75.6022C618 74.2938 618.79 72.5221 618.79 70.287C618.79 65.9259 615.956 63.7453 610.286 63.7453H601.21C600.664 63.7453 600.174 63.5545 599.738 63.1729C599.356 62.7368 599.165 62.2461 599.165 61.701V57.1218C599.165 55.9225 599.601 54.9957 600.474 54.3415L613.884 42.9753H591.152C590.606 42.9753 590.116 42.7845 589.68 42.4029C589.298 41.9668 589.107 41.4761 589.107 40.931V33.2444C589.107 32.6448 589.298 32.1542 589.68 31.7726C590.116 31.391 590.606 31.2002 591.152 31.2002H628.767C629.366 31.2002 629.857 31.391 630.238 31.7726C630.675 32.1542 630.893 32.6448 630.893 33.2444V40.195C630.893 41.2308 630.457 42.1303 629.584 42.8935L617.155 54.4233L617.727 54.5869C622.743 55.241 626.695 56.931 629.584 59.6567C632.528 62.3279 634 66.1712 634 71.1865C634 74.839 632.964 78.0281 630.893 80.7538C628.821 83.4795 625.959 85.5783 622.307 87.0502C618.654 88.5221 614.538 89.2581 609.959 89.2581Z" fill="white"/>
<path d="M760 10H680C674.477 10 670 14.4772 670 20V100C670 105.523 674.477 110 680 110H760C765.523 110 770 105.523 770 100V20C770 14.4772 765.523 10 760 10Z" fill="#EEEEEE"/>
<path d="M870 10H790C784.477 10 780 14.4772 780 20V100C780 105.523 784.477 110 790 110H870C875.523 110 880 105.523 880 100V20C880 14.4772 875.523 10 870 10Z" fill="#EEEEEE"/>
<path d="M980 10H900C894.477 10 890 14.4772 890 20V100C890 105.523 894.477 110 900 110H980C985.523 110 990 105.523 990 100V20C990 14.4772 985.523 10 980 10Z" fill="#EEEEEE"/>
<path d="M100 120H20C14.4772 120 10 124.477 10 130V210C10 215.523 14.4772 220 20 220H100C105.523 220 110 215.523 110 210V130C110 124.477 105.523 120 100 120Z" fill="#EEEEEE"/>
<path d="M210 120H130C124.477 120 120 124.477 120 130V210C120 215.523 124.477 220 130 220H210C215.523 220 220 215.523 220 210V130C220 124.477 215.523 120 210 120Z" fill="#EEEEEE"/>
<path d="M320 120H240C234.477 120 230 124.477 230 130V210C230 215.523 234.477 220 240 220H320C325.523 220 330 215.523 330 210V130C330 124.477 325.523 120 320 120Z" fill="#EEEEEE"/>
<path d="M430 120H350C344.477 120 340 124.477 340 130V210C340 215.523 344.477 220 350 220H430C435.523 220 440 215.523 440 210V130C440 124.477 435.523 120 430 120Z" fill="#6D5DFC"/>
<path d="M368.209 200.174C367.586 200.174 367.048 199.975 366.595 199.579C366.198 199.182 366 198.673 366 198.05V192.018C366 190.319 366.708 188.931 368.124 187.855L376.959 179.189C382.113 175.225 386.021 172.138 388.683 169.929C391.345 167.72 393.356 165.71 394.715 163.897C396.074 162.085 396.754 160.358 396.754 158.715C396.754 154.241 394.545 152.004 390.127 152.004C387.805 152.004 386.021 152.712 384.775 154.128C383.529 155.487 382.708 157.214 382.311 159.31C381.972 160.612 381.009 161.264 379.423 161.264H368.804C368.294 161.264 367.869 161.094 367.529 160.754C367.189 160.414 367.019 159.989 367.019 159.48C367.133 155.855 368.124 152.542 369.993 149.54C371.919 146.482 374.609 144.074 378.064 142.319C381.575 140.506 385.596 139.6 390.127 139.6C394.885 139.6 398.963 140.365 402.361 141.894C405.759 143.423 408.336 145.575 410.092 148.351C411.848 151.126 412.726 154.354 412.726 158.035C412.726 162 411.48 165.625 408.988 168.91C406.552 172.138 402.814 175.65 397.773 179.444L389.958 187.345H411.791C412.414 187.345 412.924 187.543 413.32 187.94C413.773 188.336 414 188.846 414 189.469V198.05C414 198.673 413.773 199.182 413.32 199.579C412.924 199.975 412.414 200.174 411.791 200.174H368.209Z" fill="white"/>
<path d="M540 120H460C454.477 120 450 124.477 450 130V210C450 215.523 454.477 220 460 220H540C545.523 220 550 215.523 550 210V130C550 124.477 545.523 120 540 120Z" fill="#EEEEEE"/>
<path d="M650 120H570C564.477 120 560 124.477 560 130V210C560 215.523 564.477 220 570 220H650C655.523 220 660 215.523 660 210V130C660 124.477 655.523 120 650 120Z" fill="#EEEEEE"/>
<path d="M760 120H680C674.477 120 670 124.477 670 130V210C670 215.523 674.477 220 680 220H760C765.523 220 770 215.523 770 210V130C770 124.477 765.523 120 760 120Z" fill="#EEEEEE"/>
<path d="M870 120H790C784.477 120 780 124.477 780 130V210C780 215.523 784.477 220 790 220H870C875.523 220 880 215.523 880 210V130C880 124.477 875.523 120 870 120Z" fill="#EEEEEE"/>
<path d="M980 120H900C894.477 120 890 124.477 890 130V210C890 215.523 894.477 220 900 220H980C985.523 220 990 215.523 990 210V130C990 124.477 985.523 120 980 120Z" fill="#6D5DFC"/>
<path d="M939.76 198.08C934.96 198.08 930.853 197.333 927.44 195.84C924.027 194.293 921.413 192.24 919.6 189.68C917.84 187.12 916.907 184.347 916.8 181.36C916.8 180.88 916.96 180.48 917.28 180.16C917.6 179.84 918 179.68 918.48 179.68H929.2C930.427 179.68 931.28 180.187 931.76 181.2C933.2 184.773 935.893 186.56 939.84 186.56C942.187 186.56 944.16 185.84 945.76 184.4C947.413 182.907 948.24 180.853 948.24 178.24C948.24 175.893 947.44 173.973 945.84 172.48C944.293 170.987 942.293 170.24 939.84 170.24C938.453 170.24 937.333 170.427 936.48 170.8C935.68 171.12 934.853 171.6 934 172.24C933.093 172.933 932.373 173.28 931.84 173.28H921.36C920.88 173.28 920.453 173.12 920.08 172.8C919.76 172.427 919.6 172 919.6 171.52L922.48 143.6C922.533 142.853 922.8 142.267 923.28 141.84C923.813 141.413 924.427 141.2 925.12 141.2H957.2C957.787 141.2 958.267 141.387 958.64 141.76C959.067 142.133 959.28 142.613 959.28 143.2V150.72C959.28 151.307 959.067 151.787 958.64 152.16C958.267 152.533 957.787 152.72 957.2 152.72H934L932.96 163.04C934.293 162.133 935.76 161.467 937.36 161.04C938.96 160.56 941.04 160.32 943.6 160.32C946.96 160.32 950.133 161.093 953.12 162.64C956.107 164.133 958.48 166.267 960.24 169.04C962.053 171.813 962.96 174.987 962.96 178.56C962.96 182.347 962.027 185.733 960.16 188.72C958.293 191.653 955.6 193.947 952.08 195.6C948.613 197.253 944.507 198.08 939.76 198.08Z" fill="white"/>
<path d="M100 230H20C14.4772 230 10 234.477 10 240V320C10 325.523 14.4772 330 20 330H100C105.523 330 110 325.523 110 320V240C110 234.477 105.523 230 100 230Z" fill="#EEEEEE"/>
<path d="M210 230H130C124.477 230 120 234.477 120 240V320C120 325.523 124.477 330 130 330H210C215.523 330 220 325.523 220 320V240C220 234.477 215.523 230 210 230Z" fill="#EEEEEE"/>
<path d="M320 230H240C234.477 230 230 234.477 230 240V320C230 325.523 234.477 330 240 330H320C325.523 330 330 325.523 330 320V240C330 234.477 325.523 230 320 230Z" fill="#EEEEEE"/>
<path d="M430 230H350C344.477 230 340 234.477 340 240V320C340 325.523 344.477 330 350 330H430C435.523 330 440 325.523 440 320V240C440 234.477 435.523 230 430 230Z" fill="#EEEEEE"/>
<path d="M540 230H460C454.477 230 450 234.477 450 240V320C450 325.523 454.477 330 460 330H540C545.523 330 550 325.523 550 320V240C550 234.477 545.523 230 540 230Z" fill="#EEEEEE"/>
<path d="M650 230H570C564.477 230 560 234.477 560 240V320C560 325.523 564.477 330 570 330H650C655.523 330 660 325.523 660 320V240C660 234.477 655.523 230 650 230Z" fill="#EEEEEE"/>
<path d="M760 230H680C674.477 230 670 234.477 670 240V320C670 325.523 674.477 330 680 330H760C765.523 330 770 325.523 770 320V240C770 234.477 765.523 230 760 230Z" fill="#6D5DFC"/>
<path d="M723.895 307.641C723.365 307.641 722.888 307.456 722.464 307.085C722.093 306.661 721.908 306.184 721.908 305.654V296.672H697.187C696.604 296.672 696.127 296.486 695.756 296.115C695.386 295.744 695.2 295.268 695.2 294.685V287.133C695.2 286.338 695.491 285.517 696.074 284.669L719.205 253.351C719.947 252.45 720.927 252 722.146 252H733.751C734.334 252 734.811 252.185 735.182 252.556C735.553 252.927 735.739 253.404 735.739 253.987V284.828H742.733C743.369 284.828 743.873 285.04 744.244 285.464C744.615 285.835 744.8 286.285 744.8 286.815V294.685C744.8 295.268 744.615 295.744 744.244 296.115C743.873 296.486 743.396 296.672 742.813 296.672H735.739V305.654C735.739 306.184 735.553 306.661 735.182 307.085C734.811 307.456 734.334 307.641 733.751 307.641H723.895ZM722.226 285.385V266.626L708.872 285.385H722.226Z" fill="white"/>
<path d="M870 230H790C784.477 230 780 234.477 780 240V320C780 325.523 784.477 330 790 330H870C875.523 330 880 325.523 880 320V240C880 234.477 875.523 230 870 230Z" fill="#EEEEEE"/>
<path d="M980 230H900C894.477 230 890 234.477 890 240V320C890 325.523 894.477 330 900 330H980C985.523 330 990 325.523 990 320V240C990 234.477 985.523 230 980 230Z" fill="#EEEEEE"/>
</svg>
