<svg width="1000" height="340" viewBox="0 0 1000 340" fill="none" xmlns="http://www.w3.org/2000/svg">
<path d="M985 0H15C6.71573 0 0 6.71573 0 15V325C0 333.284 6.71573 340 15 340H985C993.284 340 1000 333.284 1000 325V15C1000 6.71573 993.284 0 985 0Z" fill="white"/>
<path d="M100 10H20C14.4772 10 10 14.4772 10 20V100C10 105.523 14.4772 110 20 110H100C105.523 110 110 105.523 110 100V20C110 14.4772 105.523 10 100 10Z" fill="#6D5DFC"/>
<path d="M210 10H130C124.477 10 120 14.4772 120 20V100C120 105.523 124.477 110 130 110H210C215.523 110 220 105.523 220 100V20C220 14.4772 215.523 10 210 10Z" fill="#6D5DFC"/>
<path d="M320 10H240C234.477 10 230 14.4772 230 20V100C230 105.523 234.477 110 240 110H320C325.523 110 330 105.523 330 100V20C330 14.4772 325.523 10 320 10Z" fill="#6D5DFC"/>
<path d="M430 10H350C344.477 10 340 14.4772 340 20V100C340 105.523 344.477 110 350 110H430C435.523 110 440 105.523 440 100V20C440 14.4772 435.523 10 430 10Z" fill="#6D5DFC"/>
<path d="M540 10H460C454.477 10 450 14.4772 450 20V100C450 105.523 454.477 110 460 110H540C545.523 110 550 105.523 550 100V20C550 14.4772 545.523 10 540 10Z" fill="#6D5DFC"/>
<path d="M650 10H570C564.477 10 560 14.4772 560 20V100C560 105.523 564.477 110 570 110H650C655.523 110 660 105.523 660 100V20C660 14.4772 655.523 10 650 10Z" fill="#6D5DFC"/>
<path d="M760 10H680C674.477 10 670 14.4772 670 20V100C670 105.523 674.477 110 680 110H760C765.523 110 770 105.523 770 100V20C770 14.4772 765.523 10 760 10Z" fill="#6D5DFC"/>
<path d="M870 10H790C784.477 10 780 14.4772 780 20V100C780 105.523 784.477 110 790 110H870C875.523 110 880 105.523 880 100V20C880 14.4772 875.523 10 870 10Z" fill="#6D5DFC"/>
<path d="M980 10H900C894.477 10 890 14.4772 890 20V100C890 105.523 894.477 110 900 110H980C985.523 110 990 105.523 990 100V20C990 14.4772 985.523 10 980 10Z" fill="#6D5DFC"/>
<path d="M100 120H20C14.4772 120 10 124.477 10 130V210C10 215.523 14.4772 220 20 220H100C105.523 220 110 215.523 110 210V130C110 124.477 105.523 120 100 120Z" fill="#EEEEEE"/>
<path d="M210 120H130C124.477 120 120 124.477 120 130V210C120 215.523 124.477 220 130 220H210C215.523 220 220 215.523 220 210V130C220 124.477 215.523 120 210 120Z" fill="#EEEEEE"/>
<path d="M320 120H240C234.477 120 230 124.477 230 130V210C230 215.523 234.477 220 240 220H320C325.523 220 330 215.523 330 210V130C330 124.477 325.523 120 320 120Z" fill="#EEEEEE"/>
<path d="M430 120H350C344.477 120 340 124.477 340 130V210C340 215.523 344.477 220 350 220H430C435.523 220 440 215.523 440 210V130C440 124.477 435.523 120 430 120Z" fill="#EEEEEE"/>
<path d="M540 120H460C454.477 120 450 124.477 450 130V210C450 215.523 454.477 220 460 220H540C545.523 220 550 215.523 550 210V130C550 124.477 545.523 120 540 120Z" fill="#EEEEEE"/>
<path d="M650 120H570C564.477 120 560 124.477 560 130V210C560 215.523 564.477 220 570 220H650C655.523 220 660 215.523 660 210V130C660 124.477 655.523 120 650 120Z" fill="#EEEEEE"/>
<path d="M760 120H680C674.477 120 670 124.477 670 130V210C670 215.523 674.477 220 680 220H760C765.523 220 770 215.523 770 210V130C770 124.477 765.523 120 760 120Z" fill="#EEEEEE"/>
<path d="M870 120H790C784.477 120 780 124.477 780 130V210C780 215.523 784.477 220 790 220H870C875.523 220 880 215.523 880 210V130C880 124.477 875.523 120 870 120Z" fill="#EEEEEE"/>
<path d="M980 120H900C894.477 120 890 124.477 890 130V210C890 215.523 894.477 220 900 220H980C985.523 220 990 215.523 990 210V130C990 124.477 985.523 120 980 120Z" fill="#EEEEEE"/>
<path d="M100 230H20C14.4772 230 10 234.477 10 240V320C10 325.523 14.4772 330 20 330H100C105.523 330 110 325.523 110 320V240C110 234.477 105.523 230 100 230Z" fill="#EEEEEE"/>
<path d="M210 230H130C124.477 230 120 234.477 120 240V320C120 325.523 124.477 330 130 330H210C215.523 330 220 325.523 220 320V240C220 234.477 215.523 230 210 230Z" fill="#EEEEEE"/>
<path d="M320 230H240C234.477 230 230 234.477 230 240V320C230 325.523 234.477 330 240 330H320C325.523 330 330 325.523 330 320V240C330 234.477 325.523 230 320 230Z" fill="#EEEEEE"/>
<path d="M430 230H350C344.477 230 340 234.477 340 240V320C340 325.523 344.477 330 350 330H430C435.523 330 440 325.523 440 320V240C440 234.477 435.523 230 430 230Z" fill="#EEEEEE"/>
<path d="M540 230H460C454.477 230 450 234.477 450 240V320C450 325.523 454.477 330 460 330H540C545.523 330 550 325.523 550 320V240C550 234.477 545.523 230 540 230Z" fill="#EEEEEE"/>
<path d="M650 230H570C564.477 230 560 234.477 560 240V320C560 325.523 564.477 330 570 330H650C655.523 330 660 325.523 660 320V240C660 234.477 655.523 230 650 230Z" fill="#EEEEEE"/>
<path d="M760 230H680C674.477 230 670 234.477 670 240V320C670 325.523 674.477 330 680 330H760C765.523 330 770 325.523 770 320V240C770 234.477 765.523 230 760 230Z" fill="#EEEEEE"/>
<path d="M870 230H790C784.477 230 780 234.477 780 240V320C780 325.523 784.477 330 790 330H870C875.523 330 880 325.523 880 320V240C880 234.477 875.523 230 870 230Z" fill="#EEEEEE"/>
<path d="M980 230H900C894.477 230 890 234.477 890 240V320C890 325.523 894.477 330 900 330H980C985.523 330 990 325.523 990 320V240C990 234.477 985.523 230 980 230Z" fill="#EEEEEE"/>
</svg>
