<svg width="1000" height="340" viewBox="0 0 1000 340" fill="none" xmlns="http://www.w3.org/2000/svg">
<path d="M985 0H15C6.71573 0 0 6.71573 0 15V325C0 333.284 6.71573 340 15 340H985C993.284 340 1000 333.284 1000 325V15C1000 6.71573 993.284 0 985 0Z" fill="white"/>
<path d="M100 10H20C14.4772 10 10 14.4772 10 20V100C10 105.523 14.4772 110 20 110H100C105.523 110 110 105.523 110 100V20C110 14.4772 105.523 10 100 10Z" fill="#EEEEEE"/>
<path d="M210 10H130C124.477 10 120 14.4772 120 20V100C120 105.523 124.477 110 130 110H210C215.523 110 220 105.523 220 100V20C220 14.4772 215.523 10 210 10Z" fill="#6D5DFC"/>
<path d="M172.79 91.9998C172.188 91.9998 171.646 91.7892 171.163 91.3679C170.742 90.8863 170.531 90.3446 170.531 89.7427V46.7667L158.148 56.2467C157.726 56.6079 157.274 56.7884 156.792 56.7884C156.129 56.7884 155.527 56.4273 154.985 55.705L149.652 48.753C149.351 48.2715 149.2 47.82 149.2 47.3987C149.2 46.556 149.562 45.924 150.285 45.5027L171.073 29.4319C171.736 29.0105 172.459 28.7998 173.242 28.7998H184.54C185.203 28.7998 185.746 29.0105 186.167 29.4319C186.589 29.8532 186.8 30.3949 186.8 31.057V89.7427C186.8 90.3446 186.589 90.8863 186.167 91.3679C185.746 91.7892 185.203 91.9998 184.54 91.9998H172.79Z" fill="white"/>
<path d="M320 10H240C234.477 10 230 14.4772 230 20V100C230 105.523 234.477 110 240 110H320C325.523 110 330 105.523 330 100V20C330 14.4772 325.523 10 320 10Z" fill="#EEEEEE"/>
<path d="M430 10H350C344.477 10 340 14.4772 340 20V100C340 105.523 344.477 110 350 110H430C435.523 110 440 105.523 440 100V20C440 14.4772 435.523 10 430 10Z" fill="#EEEEEE"/>
<path d="M540 10H460C454.477 10 450 14.4772 450 20V100C450 105.523 454.477 110 460 110H540C545.523 110 550 105.523 550 100V20C550 14.4772 545.523 10 540 10Z" fill="#EEEEEE"/>
<path d="M650 10H570C564.477 10 560 14.4772 560 20V100C560 105.523 564.477 110 570 110H650C655.523 110 660 105.523 660 100V20C660 14.4772 655.523 10 650 10Z" fill="#6D5DFC"/>
<path d="M613.895 87.641C613.365 87.641 612.888 87.4556 612.464 87.0846C612.093 86.6607 611.908 86.1838 611.908 85.6539V76.6718H587.187C586.604 76.6718 586.127 76.4863 585.756 76.1154C585.386 75.7444 585.2 75.2675 585.2 74.6846V67.1333C585.2 66.3385 585.491 65.5171 586.074 64.6692L609.205 33.3513C609.947 32.4504 610.927 32 612.146 32H623.751C624.334 32 624.811 32.1855 625.182 32.5564C625.553 32.9274 625.739 33.4043 625.739 33.9872V64.8282H632.733C633.369 64.8282 633.873 65.0402 634.244 65.4641C634.615 65.835 634.8 66.2855 634.8 66.8154V74.6846C634.8 75.2675 634.615 75.7444 634.244 76.1154C633.873 76.4863 633.396 76.6718 632.813 76.6718H625.739V85.6539C625.739 86.1838 625.553 86.6607 625.182 87.0846C624.811 87.4556 624.334 87.641 623.751 87.641H613.895ZM612.226 65.3846V46.6256L598.872 65.3846H612.226Z" fill="white"/>
<path d="M760 10H680C674.477 10 670 14.4772 670 20V100C670 105.523 674.477 110 680 110H760C765.523 110 770 105.523 770 100V20C770 14.4772 765.523 10 760 10Z" fill="#EEEEEE"/>
<path d="M870 10H790C784.477 10 780 14.4772 780 20V100C780 105.523 784.477 110 790 110H870C875.523 110 880 105.523 880 100V20C880 14.4772 875.523 10 870 10Z" fill="#EEEEEE"/>
<path d="M980 10H900C894.477 10 890 14.4772 890 20V100C890 105.523 894.477 110 900 110H980C985.523 110 990 105.523 990 100V20C990 14.4772 985.523 10 980 10Z" fill="#6D5DFC"/>
<path d="M928.102 88.4254C927.615 88.4254 927.209 88.263 926.884 87.9381C926.559 87.5591 926.396 87.126 926.396 86.6387C926.396 86.368 926.451 86.1243 926.559 85.9078L945.32 43.8382H921.036C920.441 43.8382 919.926 43.6487 919.493 43.2697C919.114 42.8366 918.925 42.3222 918.925 41.7266V33.6051C918.925 33.0095 919.114 32.5222 919.493 32.1432C919.926 31.7642 920.441 31.5747 921.036 31.5747H958.964C959.613 31.5747 960.128 31.7642 960.507 32.1432C960.886 32.5222 961.075 33.0095 961.075 33.6051V40.8333C961.075 41.9703 960.778 43.1885 960.182 44.4879L941.421 86.4763C940.826 87.7757 939.878 88.4254 938.579 88.4254H928.102Z" fill="white"/>
<path d="M100 120H20C14.4772 120 10 124.477 10 130V210C10 215.523 14.4772 220 20 220H100C105.523 220 110 215.523 110 210V130C110 124.477 105.523 120 100 120Z" fill="#EEEEEE"/>
<path d="M210 120H130C124.477 120 120 124.477 120 130V210C120 215.523 124.477 220 130 220H210C215.523 220 220 215.523 220 210V130C220 124.477 215.523 120 210 120Z" fill="#EEEEEE"/>
<path d="M320 120H240C234.477 120 230 124.477 230 130V210C230 215.523 234.477 220 240 220H320C325.523 220 330 215.523 330 210V130C330 124.477 325.523 120 320 120Z" fill="#EEEEEE"/>
<path d="M430 120H350C344.477 120 340 124.477 340 130V210C340 215.523 344.477 220 350 220H430C435.523 220 440 215.523 440 210V130C440 124.477 435.523 120 430 120Z" fill="#6D5DFC"/>
<path d="M389.959 199.258C384.671 199.258 380.228 198.44 376.63 196.805C373.087 195.169 370.443 193.152 368.698 190.754C367.009 188.3 366.109 185.847 366 183.394C366 182.904 366.164 182.495 366.491 182.168C366.872 181.84 367.308 181.677 367.799 181.677H378.511C379.111 181.677 379.601 181.786 379.983 182.004C380.365 182.222 380.719 182.631 381.046 183.231C382.136 186.065 385.107 187.483 389.959 187.483C392.739 187.483 394.893 186.856 396.419 185.602C398 184.294 398.79 182.522 398.79 180.287C398.79 175.926 395.956 173.745 390.286 173.745H381.21C380.664 173.745 380.174 173.554 379.738 173.173C379.356 172.737 379.165 172.246 379.165 171.701V167.122C379.165 165.922 379.601 164.996 380.474 164.341L393.884 152.975H371.152C370.606 152.975 370.116 152.784 369.68 152.403C369.298 151.967 369.107 151.476 369.107 150.931V143.244C369.107 142.645 369.298 142.154 369.68 141.772C370.116 141.391 370.606 141.2 371.152 141.2H408.767C409.366 141.2 409.857 141.391 410.238 141.772C410.675 142.154 410.893 142.645 410.893 143.244V150.195C410.893 151.231 410.457 152.13 409.584 152.893L397.155 164.423L397.727 164.587C402.743 165.241 406.695 166.931 409.584 169.657C412.528 172.328 414 176.171 414 181.186C414 184.839 412.964 188.028 410.893 190.754C408.821 193.479 405.959 195.578 402.307 197.05C398.654 198.522 394.538 199.258 389.959 199.258Z" fill="white"/>
<path d="M540 120H460C454.477 120 450 124.477 450 130V210C450 215.523 454.477 220 460 220H540C545.523 220 550 215.523 550 210V130C550 124.477 545.523 120 540 120Z" fill="#EEEEEE"/>
<path d="M650 120H570C564.477 120 560 124.477 560 130V210C560 215.523 564.477 220 570 220H650C655.523 220 660 215.523 660 210V130C660 124.477 655.523 120 650 120Z" fill="#EEEEEE"/>
<path d="M760 120H680C674.477 120 670 124.477 670 130V210C670 215.523 674.477 220 680 220H760C765.523 220 770 215.523 770 210V130C770 124.477 765.523 120 760 120Z" fill="#6D5DFC"/>
<path d="M719.76 198.08C714.96 198.08 710.853 197.333 707.44 195.84C704.027 194.293 701.413 192.24 699.6 189.68C697.84 187.12 696.907 184.347 696.8 181.36C696.8 180.88 696.96 180.48 697.28 180.16C697.6 179.84 698 179.68 698.48 179.68H709.2C710.427 179.68 711.28 180.187 711.76 181.2C713.2 184.773 715.893 186.56 719.84 186.56C722.187 186.56 724.16 185.84 725.76 184.4C727.413 182.907 728.24 180.853 728.24 178.24C728.24 175.893 727.44 173.973 725.84 172.48C724.293 170.987 722.293 170.24 719.84 170.24C718.453 170.24 717.333 170.427 716.48 170.8C715.68 171.12 714.853 171.6 714 172.24C713.093 172.933 712.373 173.28 711.84 173.28H701.36C700.88 173.28 700.453 173.12 700.08 172.8C699.76 172.427 699.6 172 699.6 171.52L702.48 143.6C702.533 142.853 702.8 142.267 703.28 141.84C703.813 141.413 704.427 141.2 705.12 141.2H737.2C737.787 141.2 738.267 141.387 738.64 141.76C739.067 142.133 739.28 142.613 739.28 143.2V150.72C739.28 151.307 739.067 151.787 738.64 152.16C738.267 152.533 737.787 152.72 737.2 152.72H714L712.96 163.04C714.293 162.133 715.76 161.467 717.36 161.04C718.96 160.56 721.04 160.32 723.6 160.32C726.96 160.32 730.133 161.093 733.12 162.64C736.107 164.133 738.48 166.267 740.24 169.04C742.053 171.813 742.96 174.987 742.96 178.56C742.96 182.347 742.027 185.733 740.16 188.72C738.293 191.653 735.6 193.947 732.08 195.6C728.613 197.253 724.507 198.08 719.76 198.08Z" fill="white"/>
<path d="M870 120H790C784.477 120 780 124.477 780 130V210C780 215.523 784.477 220 790 220H870C875.523 220 880 215.523 880 210V130C880 124.477 875.523 120 870 120Z" fill="#EEEEEE"/>
<path d="M980 120H900C894.477 120 890 124.477 890 130V210C890 215.523 894.477 220 900 220H980C985.523 220 990 215.523 990 210V130C990 124.477 985.523 120 980 120Z" fill="#EEEEEE"/>
<path d="M100 230H20C14.4772 230 10 234.477 10 240V320C10 325.523 14.4772 330 20 330H100C105.523 330 110 325.523 110 320V240C110 234.477 105.523 230 100 230Z" fill="#EEEEEE"/>
<path d="M210 230H130C124.477 230 120 234.477 120 240V320C120 325.523 124.477 330 130 330H210C215.523 330 220 325.523 220 320V240C220 234.477 215.523 230 210 230Z" fill="#EEEEEE"/>
<path d="M320 230H240C234.477 230 230 234.477 230 240V320C230 325.523 234.477 330 240 330H320C325.523 330 330 325.523 330 320V240C330 234.477 325.523 230 320 230Z" fill="#6D5DFC"/>
<path d="M258.209 310.174C257.586 310.174 257.048 309.975 256.595 309.579C256.198 309.182 256 308.673 256 308.05V302.018C256 300.319 256.708 298.931 258.124 297.855L266.959 289.189C272.113 285.225 276.021 282.138 278.683 279.929C281.345 277.72 283.356 275.71 284.715 273.897C286.074 272.085 286.754 270.358 286.754 268.715C286.754 264.241 284.545 262.004 280.127 262.004C277.805 262.004 276.021 262.712 274.775 264.128C273.529 265.487 272.708 267.214 272.311 269.31C271.972 270.612 271.009 271.264 269.423 271.264H258.804C258.294 271.264 257.869 271.094 257.529 270.754C257.189 270.414 257.019 269.989 257.019 269.48C257.133 265.855 258.124 262.542 259.993 259.54C261.919 256.482 264.609 254.074 268.064 252.319C271.575 250.506 275.596 249.6 280.127 249.6C284.885 249.6 288.963 250.365 292.361 251.894C295.759 253.423 298.336 255.575 300.092 258.351C301.848 261.126 302.726 264.354 302.726 268.035C302.726 272 301.48 275.625 298.988 278.91C296.552 282.138 292.814 285.65 287.773 289.444L279.958 297.345H301.791C302.414 297.345 302.924 297.543 303.32 297.94C303.773 298.336 304 298.846 304 299.469V308.05C304 308.673 303.773 309.182 303.32 309.579C302.924 309.975 302.414 310.174 301.791 310.174H258.209Z" fill="white"/>
<path d="M430 230H350C344.477 230 340 234.477 340 240V320C340 325.523 344.477 330 350 330H430C435.523 330 440 325.523 440 320V240C440 234.477 435.523 230 430 230Z" fill="#EEEEEE"/>
<path d="M540 230H460C454.477 230 450 234.477 450 240V320C450 325.523 454.477 330 460 330H540C545.523 330 550 325.523 550 320V240C550 234.477 545.523 230 540 230Z" fill="#EEEEEE"/>
<path d="M650 230H570C564.477 230 560 234.477 560 240V320C560 325.523 564.477 330 570 330H650C655.523 330 660 325.523 660 320V240C660 234.477 655.523 230 650 230Z" fill="#EEEEEE"/>
<path d="M760 230H680C674.477 230 670 234.477 670 240V320C670 325.523 674.477 330 680 330H760C765.523 330 770 325.523 770 320V240C770 234.477 765.523 230 760 230Z" fill="#EEEEEE"/>
<path d="M870 230H790C784.477 230 780 234.477 780 240V320C780 325.523 784.477 330 790 330H870C875.523 330 880 325.523 880 320V240C880 234.477 875.523 230 870 230Z" fill="#6D5DFC"/>
<path d="M830.28 308.448C825.579 308.448 821.412 307.62 817.779 305.964C814.2 304.254 811.395 301.877 809.365 298.832C807.388 295.787 806.4 292.314 806.4 288.414C806.4 283.66 808.644 278.237 813.131 272.147L827.235 253.154C827.663 252.674 828.063 252.3 828.437 252.033C828.865 251.712 829.426 251.552 830.12 251.552H840.778C841.259 251.552 841.66 251.739 841.98 252.113C842.301 252.433 842.461 252.834 842.461 253.315C842.461 253.689 842.354 254.036 842.141 254.357L831.322 269.102C831.963 268.941 832.765 268.861 833.726 268.861C836.985 269.021 840.137 269.93 843.182 271.586C846.281 273.188 848.792 275.432 850.715 278.317C852.638 281.202 853.6 284.461 853.6 288.094C853.6 291.833 852.638 295.252 850.715 298.351C848.792 301.45 846.041 303.907 842.461 305.724C838.935 307.54 834.875 308.448 830.28 308.448ZM830.12 296.909C832.578 296.909 834.661 296.161 836.371 294.665C838.08 293.116 838.935 291.005 838.935 288.334C838.935 285.663 838.08 283.579 836.371 282.084C834.715 280.588 832.631 279.84 830.12 279.84C827.609 279.84 825.499 280.588 823.789 282.084C822.08 283.579 821.225 285.663 821.225 288.334C821.225 291.005 822.08 293.116 823.789 294.665C825.499 296.161 827.609 296.909 830.12 296.909Z" fill="white"/>
<path d="M980 230H900C894.477 230 890 234.477 890 240V320C890 325.523 894.477 330 900 330H980C985.523 330 990 325.523 990 320V240C990 234.477 985.523 230 980 230Z" fill="#EEEEEE"/>
</svg>
