<svg width="1000" height="340" viewBox="0 0 1000 340" fill="none" xmlns="http://www.w3.org/2000/svg">
<path d="M985 0H15C6.71573 0 0 6.71573 0 15V325C0 333.284 6.71573 340 15 340H985C993.284 340 1000 333.284 1000 325V15C1000 6.71573 993.284 0 985 0Z" fill="white"/>
<path d="M100 10H20C14.4772 10 10 14.4772 10 20V100C10 105.523 14.4772 110 20 110H100C105.523 110 110 105.523 110 100V20C110 14.4772 105.523 10 100 10Z" fill="#6D5DFC"/>
<path d="M39.1138 92.8C38.4968 92.8 37.9414 92.584 37.4478 92.152C37.0159 91.6583 36.8 91.1029 36.8 90.4857V30.3143C36.8 29.6354 37.0159 29.08 37.4478 28.648C37.9414 28.216 38.4968 28 39.1138 28H81.6864C82.3651 28 82.9202 28.216 83.3521 28.648C83.784 29.08 84 29.6354 84 30.3143V39.664C84 40.2811 83.784 40.8366 83.3521 41.3303C82.9202 41.7623 82.3651 41.9783 81.6864 41.9783H53.0886V55.5863H79.8353C80.514 55.5863 81.0693 55.8331 81.5012 56.3269C81.9331 56.7589 82.1491 57.3143 82.1491 57.9931V67.2503C82.1491 67.8674 81.9331 68.4229 81.5012 68.9166C81.0693 69.3486 80.514 69.5646 79.8353 69.5646H53.0886V90.4857C53.0886 91.1646 52.8727 91.72 52.4408 92.152C52.0089 92.584 51.4536 92.8 50.7749 92.8H39.1138Z" fill="white"/>
<path d="M210 10H130C124.477 10 120 14.4772 120 20V100C120 105.523 124.477 110 130 110H210C215.523 110 220 105.523 220 100V20C220 14.4772 215.523 10 210 10Z" fill="#EEEEEE"/>
<path d="M320 10H240C234.477 10 230 14.4772 230 20V100C230 105.523 234.477 110 240 110H320C325.523 110 330 105.523 330 100V20C330 14.4772 325.523 10 320 10Z" fill="#EEEEEE"/>
<path d="M430 10H350C344.477 10 340 14.4772 340 20V100C340 105.523 344.477 110 350 110H430C435.523 110 440 105.523 440 100V20C440 14.4772 435.523 10 430 10Z" fill="#EEEEEE"/>
<path d="M540 10H460C454.477 10 450 14.4772 450 20V100C450 105.523 454.477 110 460 110H540C545.523 110 550 105.523 550 100V20C550 14.4772 545.523 10 540 10Z" fill="#EEEEEE"/>
<path d="M650 10H570C564.477 10 560 14.4772 560 20V100C560 105.523 564.477 110 570 110H650C655.523 110 660 105.523 660 100V20C660 14.4772 655.523 10 650 10Z" fill="#EEEEEE"/>
<path d="M760 10H680C674.477 10 670 14.4772 670 20V100C670 105.523 674.477 110 680 110H760C765.523 110 770 105.523 770 100V20C770 14.4772 765.523 10 760 10Z" fill="#EEEEEE"/>
<path d="M870 10H790C784.477 10 780 14.4772 780 20V100C780 105.523 784.477 110 790 110H870C875.523 110 880 105.523 880 100V20C880 14.4772 875.523 10 870 10Z" fill="#EEEEEE"/>
<path d="M980 10H900C894.477 10 890 14.4772 890 20V100C890 105.523 894.477 110 900 110H980C985.523 110 990 105.523 990 100V20C990 14.4772 985.523 10 980 10Z" fill="#6D5DFC"/>
<path d="M920.635 91.9998C920.039 91.9998 919.503 91.7891 919.026 91.3678C918.609 90.8863 918.4 90.3446 918.4 89.7427V31.0569C918.4 30.3949 918.609 29.8531 919.026 29.4318C919.503 29.0105 920.039 28.7998 920.635 28.7998H932.438C933.093 28.7998 933.63 29.0105 934.047 29.4318C934.464 29.8531 934.673 30.3949 934.673 31.0569V78.3667H961.765C962.42 78.3667 962.957 78.6074 963.374 79.089C963.791 79.5103 964 80.052 964 80.7141V89.7427C964 90.3446 963.791 90.8863 963.374 91.3678C962.957 91.7891 962.42 91.9998 961.765 91.9998H920.635Z" fill="white"/>
<path d="M100 120H20C14.4772 120 10 124.477 10 130V210C10 215.523 14.4772 220 20 220H100C105.523 220 110 215.523 110 210V130C110 124.477 105.523 120 100 120Z" fill="#EEEEEE"/>
<path d="M210 120H130C124.477 120 120 124.477 120 130V210C120 215.523 124.477 220 130 220H210C215.523 220 220 215.523 220 210V130C220 124.477 215.523 120 210 120Z" fill="#EEEEEE"/>
<path d="M320 120H240C234.477 120 230 124.477 230 130V210C230 215.523 234.477 220 240 220H320C325.523 220 330 215.523 330 210V130C330 124.477 325.523 120 320 120Z" fill="#EEEEEE"/>
<path d="M430 120H350C344.477 120 340 124.477 340 130V210C340 215.523 344.477 220 350 220H430C435.523 220 440 215.523 440 210V130C440 124.477 435.523 120 430 120Z" fill="#EEEEEE"/>
<path d="M540 120H460C454.477 120 450 124.477 450 130V210C450 215.523 454.477 220 460 220H540C545.523 220 550 215.523 550 210V130C550 124.477 545.523 120 540 120Z" fill="#6D5DFC"/>
<path d="M470.297 202C469.684 202 469.133 201.787 468.643 201.36C468.214 200.872 468 200.324 468 199.714V140.286C468 139.615 468.214 139.067 468.643 138.64C469.133 138.213 469.684 138 470.297 138H480.217C481.687 138 482.759 138.67 483.433 140.011L499.6 168.811L515.767 140.011C516.441 138.67 517.513 138 518.983 138H528.812C529.485 138 530.036 138.213 530.465 138.64C530.955 139.067 531.2 139.615 531.2 140.286V199.714C531.2 200.385 530.955 200.933 530.465 201.36C530.036 201.787 529.485 202 528.812 202H517.88C517.207 202 516.625 201.787 516.135 201.36C515.706 200.933 515.492 200.385 515.492 199.714V165.429L505.203 184.537C504.407 185.939 503.336 186.64 501.988 186.64H497.212C496.416 186.64 495.772 186.457 495.283 186.091C494.793 185.726 494.364 185.208 493.997 184.537L483.616 165.429V199.714C483.616 200.324 483.402 200.872 482.973 201.36C482.545 201.787 481.993 202 481.32 202H470.297Z" fill="white"/>
<path d="M650 120H570C564.477 120 560 124.477 560 130V210C560 215.523 564.477 220 570 220H650C655.523 220 660 215.523 660 210V130C660 124.477 655.523 120 650 120Z" fill="#EEEEEE"/>
<path d="M760 120H680C674.477 120 670 124.477 670 130V210C670 215.523 674.477 220 680 220H760C765.523 220 770 215.523 770 210V130C770 124.477 765.523 120 760 120Z" fill="#EEEEEE"/>
<path d="M870 120H790C784.477 120 780 124.477 780 130V210C780 215.523 784.477 220 790 220H870C875.523 220 880 215.523 880 210V130C880 124.477 875.523 120 870 120Z" fill="#EEEEEE"/>
<path d="M980 120H900C894.477 120 890 124.477 890 130V210C890 215.523 894.477 220 900 220H980C985.523 220 990 215.523 990 210V130C990 124.477 985.523 120 980 120Z" fill="#EEEEEE"/>
<path d="M100 230H20C14.4772 230 10 234.477 10 240V320C10 325.523 14.4772 330 20 330H100C105.523 330 110 325.523 110 320V240C110 234.477 105.523 230 100 230Z" fill="#6D5DFC"/>
<path d="M39.1138 312.8C38.4968 312.8 37.9414 312.584 37.4478 312.152C37.0159 311.658 36.8 311.103 36.8 310.486V250.314C36.8 249.635 37.0159 249.08 37.4478 248.648C37.9414 248.216 38.4968 248 39.1138 248H81.6864C82.3651 248 82.9202 248.216 83.3521 248.648C83.784 249.08 84 249.635 84 250.314V259.664C84 260.281 83.784 260.837 83.3521 261.33C82.9202 261.762 82.3651 261.978 81.6864 261.978H53.0886V275.586H79.8353C80.514 275.586 81.0693 275.833 81.5012 276.327C81.9331 276.759 82.1491 277.314 82.1491 277.993V287.25C82.1491 287.867 81.9331 288.423 81.5012 288.917C81.0693 289.349 80.514 289.565 79.8353 289.565H53.0886V310.486C53.0886 311.165 52.8727 311.72 52.4408 312.152C52.0089 312.584 51.4536 312.8 50.7749 312.8H39.1138Z" fill="white"/>
<path d="M210 230H130C124.477 230 120 234.477 120 240V320C120 325.523 124.477 330 130 330H210C215.523 330 220 325.523 220 320V240C220 234.477 215.523 230 210 230Z" fill="#EEEEEE"/>
<path d="M320 230H240C234.477 230 230 234.477 230 240V320C230 325.523 234.477 330 240 330H320C325.523 330 330 325.523 330 320V240C330 234.477 325.523 230 320 230Z" fill="#EEEEEE"/>
<path d="M430 230H350C344.477 230 340 234.477 340 240V320C340 325.523 344.477 330 350 330H430C435.523 330 440 325.523 440 320V240C440 234.477 435.523 230 430 230Z" fill="#EEEEEE"/>
<path d="M540 230H460C454.477 230 450 234.477 450 240V320C450 325.523 454.477 330 460 330H540C545.523 330 550 325.523 550 320V240C550 234.477 545.523 230 540 230Z" fill="#EEEEEE"/>
<path d="M650 230H570C564.477 230 560 234.477 560 240V320C560 325.523 564.477 330 570 330H650C655.523 330 660 325.523 660 320V240C660 234.477 655.523 230 650 230Z" fill="#EEEEEE"/>
<path d="M760 230H680C674.477 230 670 234.477 670 240V320C670 325.523 674.477 330 680 330H760C765.523 330 770 325.523 770 320V240C770 234.477 765.523 230 760 230Z" fill="#EEEEEE"/>
<path d="M870 230H790C784.477 230 780 234.477 780 240V320C780 325.523 784.477 330 790 330H870C875.523 330 880 325.523 880 320V240C880 234.477 875.523 230 870 230Z" fill="#EEEEEE"/>
<path d="M980 230H900C894.477 230 890 234.477 890 240V320C890 325.523 894.477 330 900 330H980C985.523 330 990 325.523 990 320V240C990 234.477 985.523 230 980 230Z" fill="#6D5DFC"/>
<path d="M920.635 312C920.039 312 919.503 311.789 919.026 311.368C918.609 310.886 918.4 310.345 918.4 309.743V251.057C918.4 250.395 918.609 249.853 919.026 249.432C919.503 249.011 920.039 248.8 920.635 248.8H932.438C933.093 248.8 933.63 249.011 934.047 249.432C934.464 249.853 934.673 250.395 934.673 251.057V298.367H961.765C962.42 298.367 962.957 298.608 963.374 299.089C963.791 299.51 964 300.052 964 300.714V309.743C964 310.345 963.791 310.886 963.374 311.368C962.957 311.789 962.42 312 961.765 312H920.635Z" fill="white"/>
</svg>
