<svg width="27" height="27" viewBox="0 0 27 27" fill="none" xmlns="http://www.w3.org/2000/svg">
<path d="M26.1372 11.0684C27.6413 18.0871 23.1709 24.9967 16.1522 26.5008C9.13346 28.0049 2.22378 23.5344 0.719666 16.5158C-0.784448 9.49715 3.68673 2.58753 10.7047 1.08343C17.7234 -0.421387 24.6331 4.04975 26.1372 11.0684Z" fill="#FFCB4C"/>
<path d="M21.5787 7.29934C22.1412 9.92483 20.4688 12.5099 17.8433 13.0724C15.2178 13.6349 12.6327 11.9625 12.0695 9.33705C11.507 6.71156 13.1793 4.1265 15.8048 3.564C18.4304 3.0015 21.0162 4.67312 21.5787 7.29934Z" fill="#F4F7F9"/>
<path d="M16.54 8.97155C17.3523 8.97155 18.0109 8.31302 18.0109 7.50067C18.0109 6.68832 17.3523 6.02979 16.54 6.02979C15.7276 6.02979 15.0691 6.68832 15.0691 7.50067C15.0691 8.31302 15.7276 8.97155 16.54 8.97155Z" fill="#292F33"/>
<path d="M10.6058 11.105C10.9351 12.6402 9.95664 14.1515 8.42147 14.4807C6.88631 14.81 5.37497 13.8316 5.0457 12.2964C4.71643 10.7613 5.69486 9.24997 7.23002 8.9207C8.76519 8.59143 10.2765 9.56985 10.6058 11.105V11.105Z" fill="#F4F7F9"/>
<path d="M8.1202 13.6126C8.87748 13.4503 9.35982 12.7048 9.19755 11.9476C9.03527 11.1903 8.28982 10.708 7.53255 10.8702C6.77527 11.0325 6.29293 11.778 6.45521 12.5352C6.61748 13.2925 7.36293 13.7748 8.1202 13.6126Z" fill="#292F33"/>
<path d="M13.8821 15.9101C11.3237 16.4582 9.56324 16.5239 7.37603 16.5658C6.87706 16.5766 5.96434 16.8683 6.2669 18.2807C6.87201 21.1048 10.8731 23.9397 15.3956 22.9706C19.9173 22.0016 22.4056 17.776 21.8005 14.9519C21.4979 13.5395 20.5448 13.6464 20.0855 13.8428C18.0738 14.6999 16.4404 15.362 13.8821 15.9101Z" fill="#65471B"/>
<path d="M8.37598 18.1245V22.457C8.37598 24.6233 9.82016 26.7895 12.7085 26.7895C15.5969 26.7895 17.0411 24.6233 17.0411 22.457V18.1245H8.37598V18.1245Z" fill="#E8596E"/>
<path d="M12.7086 23.814C12.9259 23.814 13.1021 23.6379 13.1021 23.4205V18.875H12.3143V23.4205C12.3151 23.6379 12.4912 23.814 12.7086 23.814V23.814Z" fill="#DD2F45"/>
<path d="M7.67859 17.9781C7.67859 17.9781 9.94812 18.2301 14.1846 17.3224C18.4211 16.4148 20.3881 15.2544 20.3881 15.2544C20.3881 15.2544 19.5815 18.381 14.6388 19.4403C9.69611 20.4996 7.67859 17.9781 7.67859 17.9781V17.9781Z" fill="white"/>
</svg>
