<svg width="27" height="27" viewBox="0 0 27 27" fill="none" xmlns="http://www.w3.org/2000/svg">
<path d="M26.2856 13.792C26.2856 20.9716 20.4653 26.792 13.2856 26.792C6.10603 26.792 0.285645 20.9716 0.285645 13.792C0.285645 6.61238 6.10603 0.791992 13.2856 0.791992C20.4653 0.791992 26.2856 6.61238 26.2856 13.792Z" fill="#FFCC4D"/>
<path d="M16.1746 20.2922C16.1746 22.2877 14.8811 22.4589 13.2857 22.4589C11.6896 22.4589 10.3968 22.2877 10.3968 20.2922C10.3968 18.2981 11.6896 15.9589 13.2857 15.9589C14.8811 15.9589 16.1746 18.2981 16.1746 20.2922ZM21.9524 11.6255C21.8628 11.6255 21.7718 11.6089 21.6844 11.5735C17.9079 10.0634 16.3602 7.78835 16.2959 7.6923C16.0742 7.36008 16.1637 6.91158 16.496 6.69058C16.8275 6.46958 17.2738 6.55769 17.4962 6.88847C17.51 6.90797 18.8901 8.89985 22.2203 10.2316C22.5908 10.3804 22.7714 10.8 22.6233 11.1705C22.5099 11.4536 22.2384 11.6255 21.9524 11.6255V11.6255ZM4.61903 11.6255C4.33231 11.6255 4.06147 11.4536 3.94808 11.1712C3.80003 10.8007 3.97986 10.3804 4.35036 10.2324C7.68125 8.90058 9.06142 6.90869 9.07514 6.88919C9.29758 6.55985 9.74608 6.47247 10.0769 6.69419C10.4069 6.91663 10.4965 7.36224 10.2755 7.69302C10.2112 7.78908 8.66347 10.0641 4.88769 11.5742C4.79958 11.6089 4.70858 11.6255 4.61903 11.6255Z" fill="#664500"/>
<path d="M17.619 12.3477H20.5079V26.0699L17.619 26.0367V12.3477ZM6.06348 26.0699L8.95237 26.0367V12.3477H6.06348V26.0699Z" fill="#5DADEC"/>
<path d="M11.1182 13.7919C11.0099 13.7919 10.8994 13.7673 10.7961 13.716C8.25963 12.4478 5.68996 13.703 5.66468 13.716C5.30718 13.8959 4.87385 13.7493 4.69546 13.3932C4.51707 13.0364 4.66152 12.6024 5.01829 12.424C5.14974 12.359 8.26685 10.8373 11.4425 12.424C11.7992 12.6024 11.9437 13.0364 11.7653 13.3932C11.6382 13.646 11.3832 13.7919 11.1182 13.7919V13.7919ZM21.2293 13.7919C21.121 13.7919 21.0105 13.7673 20.9072 13.716C18.37 12.4478 15.8011 13.703 15.7758 13.716C15.419 13.8951 14.9857 13.75 14.8066 13.3932C14.6282 13.0364 14.7726 12.6024 15.1294 12.424C15.2609 12.359 18.3801 10.838 21.5536 12.424C21.9103 12.6024 22.0548 13.0364 21.8764 13.3932C21.7493 13.646 21.4944 13.7919 21.2293 13.7919V13.7919Z" fill="#664500"/>
<path d="M13.2856 26.7922C20.4653 26.7922 26.2856 26.1455 26.2856 25.3478C26.2856 24.55 20.4653 23.9033 13.2856 23.9033C6.10594 23.9033 0.285645 24.55 0.285645 25.3478C0.285645 26.1455 6.10594 26.7922 13.2856 26.7922Z" fill="#5DADEC"/>
<path d="M13.2857 21.7365C14.4823 21.7365 15.4524 21.0898 15.4524 20.2921C15.4524 19.4944 14.4823 18.8477 13.2857 18.8477C12.0891 18.8477 11.119 19.4944 11.119 20.2921C11.119 21.0898 12.0891 21.7365 13.2857 21.7365Z" fill="#E75A70"/>
</svg>
