<svg width="26" height="27" viewBox="0 0 26 27" fill="none" xmlns="http://www.w3.org/2000/svg">
<path d="M26 13.792C26 20.9716 20.1796 26.792 13 26.792C5.82111 26.792 0 20.9716 0 13.792C0 6.6131 5.82111 0.791992 13 0.791992C20.1796 0.791992 26 6.6131 26 13.792Z" fill="#DA2F47"/>
<path d="M18.4058 22.3711C18.3733 22.2418 17.5622 19.2085 12.9999 19.2085C8.43693 19.2085 7.6266 22.2418 7.5941 22.3711C7.55437 22.5278 7.62515 22.6903 7.76526 22.7712C7.9061 22.8499 8.08232 22.8283 8.1986 22.7156C8.21232 22.7019 9.60982 21.3752 12.9999 21.3752C16.39 21.3752 17.7883 22.7019 17.8013 22.7149C17.8706 22.7835 17.963 22.8196 18.0555 22.8196C18.1162 22.8196 18.1775 22.8044 18.2332 22.7734C18.3747 22.6925 18.4455 22.5286 18.4058 22.3711V22.3711ZM11.3439 11.8368C8.99304 9.48594 5.2151 9.4585 5.05549 9.4585C4.65682 9.4585 4.33399 9.78133 4.33399 10.1793C4.33326 10.5779 4.6561 10.9015 5.05476 10.9029C5.07571 10.9029 6.44504 10.9196 7.93137 11.4352C7.5031 11.8974 7.22215 12.6153 7.22215 13.4307C7.22215 14.8275 8.03032 15.9585 9.02771 15.9585C10.0251 15.9585 10.8333 14.8275 10.8333 13.4307C10.8333 13.3051 10.8195 13.1852 10.8065 13.0646C10.8159 13.0646 10.8246 13.0696 10.8333 13.0696C11.0182 13.0696 11.203 12.9988 11.3439 12.858C11.6263 12.5756 11.6263 12.1192 11.3439 11.8368V11.8368ZM20.9444 9.4585C20.7848 9.4585 17.0075 9.48594 14.656 11.8368C14.3736 12.1192 14.3736 12.5756 14.656 12.858C14.7968 12.9988 14.9817 13.0696 15.1666 13.0696C15.176 13.0696 15.1839 13.0646 15.1926 13.0646C15.181 13.1852 15.1666 13.3051 15.1666 13.4307C15.1666 14.8275 15.9748 15.9585 16.9722 15.9585C17.9695 15.9585 18.7777 14.8275 18.7777 13.4307C18.7777 12.6153 18.4968 11.8974 18.0685 11.4352C19.5548 10.9196 20.9242 10.9029 20.9458 10.9029C21.3438 10.9015 21.6666 10.5779 21.6659 10.1793C21.6652 9.78133 21.343 9.4585 20.9444 9.4585V9.4585Z" fill="#292F33"/>
</svg>
