<svg width="27" height="27" viewBox="0 0 27 27" fill="none" xmlns="http://www.w3.org/2000/svg">
<path d="M26.8569 13.792C26.8569 20.9716 21.0365 26.792 13.8569 26.792C6.67804 26.792 0.856934 20.9716 0.856934 13.792C0.856934 6.6131 6.67804 0.791992 13.8569 0.791992C21.0365 0.791992 26.8569 6.6131 26.8569 13.792Z" fill="#FFCC4D"/>
<path d="M5.91316 11.6252C5.67988 11.6252 5.45094 11.5126 5.31155 11.3038C5.09055 10.9716 5.1801 10.5231 5.5116 10.3021C5.60766 10.2386 7.89566 8.73633 10.968 8.73633C11.3667 8.73633 11.6902 9.05988 11.6902 9.45855C11.6902 9.85722 11.3667 10.1808 10.968 10.1808C8.32827 10.1808 6.33277 11.4909 6.31327 11.5039C6.18977 11.5862 6.05038 11.6252 5.91316 11.6252V11.6252ZM21.8006 11.6252C21.6641 11.6252 21.5247 11.5862 21.4019 11.5046C21.3817 11.4916 19.366 10.1808 16.7458 10.1808C16.3464 10.1808 16.0235 9.85722 16.0235 9.45855C16.0235 9.05988 16.3464 8.73633 16.7458 8.73633C19.8181 8.73633 22.1061 10.2386 22.2022 10.3021C22.5344 10.5231 22.6239 10.9716 22.4022 11.3038C22.2635 11.5126 22.0339 11.6252 21.8006 11.6252Z" fill="#664500"/>
<path d="M20.3569 16.7462L26.8569 13.7916C26.8569 13.315 26.8273 12.8462 26.7782 12.3833L20.3569 15.3018V14.5139C20.3569 13.7165 19.7098 13.0694 18.9125 13.0694H8.80138C8.00404 13.0694 7.35693 13.7165 7.35693 14.5139V15.3018L0.936378 12.3833C0.886545 12.8462 0.856934 13.315 0.856934 13.7916L7.35693 16.7462V20.0295L1.97421 19.0509C2.22049 19.607 2.50938 20.1392 2.8286 20.6506L7.35693 21.4739V22.4583C7.35693 23.2556 8.00404 23.9027 8.80138 23.9027H18.9125C19.7098 23.9027 20.3569 23.2556 20.3569 22.4583V21.4739L24.886 20.6499C25.2045 20.1385 25.4934 19.6062 25.7397 19.0501L20.3569 20.0295V16.7462Z" fill="#F5F8FA"/>
</svg>
