<svg width="27" height="27" viewBox="0 0 27 27" fill="none" xmlns="http://www.w3.org/2000/svg">
<path d="M26.5713 13.7919C26.5713 20.9715 20.7509 26.7918 13.5713 26.7918C6.3924 26.7918 0.571289 20.9715 0.571289 13.7919C0.571289 6.61307 6.3924 0.791992 13.5713 0.791992C20.7509 0.791992 26.5713 6.61307 26.5713 13.7919Z" fill="#FFCC4D"/>
<path d="M8.87684 15.5975C9.87403 15.5975 10.6824 14.4658 10.6824 13.0698C10.6824 11.6737 9.87403 10.542 8.87684 10.542C7.87966 10.542 7.07129 11.6737 7.07129 13.0698C7.07129 14.4658 7.87966 15.5975 8.87684 15.5975Z" fill="#664500"/>
<path d="M18.2658 15.5975C19.2629 15.5975 20.0713 14.4658 20.0713 13.0698C20.0713 11.6737 19.2629 10.542 18.2658 10.542C17.2686 10.542 16.4602 11.6737 16.4602 13.0698C16.4602 14.4658 17.2686 15.5975 18.2658 15.5975Z" fill="#664500"/>
<path d="M4.90384 10.5423C4.75362 10.5423 4.60123 10.4953 4.47123 10.3978C4.152 10.1588 4.08773 9.70596 4.32678 9.38674C6.68267 6.2451 9.82723 6.20898 9.96011 6.20898C10.3588 6.20898 10.6823 6.53254 10.6823 6.9312C10.6823 7.32914 10.3609 7.65198 9.963 7.65342C9.85106 7.65486 7.38612 7.71553 5.48234 10.2534C5.34078 10.4426 5.12339 10.5423 4.90384 10.5423ZM22.2386 10.5423C22.0183 10.5423 21.8024 10.4426 21.6601 10.2534C19.7527 7.71048 17.2827 7.65414 17.178 7.65342C16.7808 7.64909 16.4601 7.32409 16.4623 6.92759C16.4644 6.52965 16.7851 6.20898 17.1823 6.20898C17.3152 6.20898 20.4591 6.2451 22.8157 9.38674C23.0554 9.70596 22.9904 10.1588 22.6712 10.3978C22.5412 10.4953 22.3896 10.5423 22.2386 10.5423V10.5423ZM17.5326 21.2882C17.5247 21.2564 16.7057 18.1256 13.5712 18.1256C10.4368 18.1256 9.61778 21.2564 9.60984 21.2882C9.57156 21.442 9.64161 21.5994 9.77739 21.6811C9.91317 21.7619 10.0901 21.7432 10.2078 21.6377C10.2143 21.6319 10.9394 21.0145 13.5712 21.0145C16.164 21.0145 16.9057 21.6139 16.9339 21.6377C17.0025 21.7027 17.0921 21.7367 17.1823 21.7367C17.243 21.7367 17.3044 21.7215 17.36 21.6904C17.5016 21.6096 17.5723 21.4456 17.5326 21.2882V21.2882Z" fill="#664500"/>
<path d="M12.1269 23.1807C12.1269 25.1754 10.5106 26.7918 8.51577 26.7918C6.521 26.7918 4.90466 25.1754 4.90466 23.1807C4.90466 21.1859 7.79355 15.9585 8.51577 15.9585C9.238 15.9585 12.1269 21.1859 12.1269 23.1807Z" fill="#5DADEC"/>
</svg>
