<svg width="26" height="27" viewBox="0 0 26 27" fill="none" xmlns="http://www.w3.org/2000/svg">
<path d="M13 26.792C20.1797 26.792 26 20.9717 26 13.792C26 6.61229 20.1797 0.791992 13 0.791992C5.8203 0.791992 0 6.61229 0 13.792C0 20.9717 5.8203 26.792 13 26.792Z" fill="#FFCC4D"/>
<path d="M13 21.7367C14.1967 21.7367 15.1667 20.7666 15.1667 19.57C15.1667 18.3734 14.1967 17.4033 13 17.4033C11.8034 17.4033 10.8334 18.3734 10.8334 19.57C10.8334 20.7666 11.8034 21.7367 13 21.7367Z" fill="#664500"/>
<path d="M12.5031 12.7895C12.376 12.6862 12.1947 12.6833 12.0625 12.7794C12.0539 12.7859 11.1525 13.4308 9.38886 13.4308C7.62592 13.4308 6.72386 12.7859 6.71664 12.7808C6.58447 12.6819 6.40247 12.6848 6.27536 12.7873C6.14681 12.8899 6.10347 13.0661 6.16992 13.2163C6.21325 13.3138 7.25325 15.5975 9.38886 15.5975C11.5252 15.5975 12.5645 13.3138 12.6078 13.2163C12.6743 13.0668 12.6309 12.8921 12.5031 12.7895V12.7895ZM19.7253 12.7895C19.5982 12.6862 19.4176 12.6826 19.2848 12.7794C19.2761 12.7859 18.374 13.4308 16.6111 13.4308C14.8489 13.4308 13.9461 12.7859 13.9389 12.7808C13.8067 12.6819 13.6254 12.6848 13.4976 12.7873C13.369 12.8899 13.3257 13.0661 13.3921 13.2163C13.4355 13.3138 14.4755 15.5975 16.6111 15.5975C18.7474 15.5975 19.7867 13.3138 19.83 13.2163C19.8965 13.0668 19.8531 12.8921 19.7253 12.7895V12.7895Z" fill="#664500"/>
<path d="M24.8661 9.84442C24.869 9.81265 24.8827 9.78881 24.8827 9.75559C24.8827 9.21104 24.4869 8.89759 23.998 8.89759H21.411L24.5014 4.56931C24.6502 4.36492 24.705 4.24215 24.705 3.98359C24.705 3.45276 24.2428 3.37042 24.0659 3.37042H20.2027L20.1796 2.87354C20.1796 2.87354 19.162 3.4737 19.0941 3.51487C19.0262 3.55604 18.7294 3.78354 18.7294 4.2277C18.7294 4.77226 19.1237 5.08498 19.6141 5.08498H21.8884L18.811 9.41326C18.7431 9.52231 18.6348 9.72598 18.6348 9.94409C18.6348 10.3933 19.0017 10.6114 19.4372 10.6114H23.998C24.1843 10.6114 24.3699 10.5565 24.4898 10.4843L25.5753 9.84298H24.8661V9.84442Z" fill="#FFAC33"/>
<path d="M22.9457 4.46381H20.6715C20.1811 4.46381 19.7867 4.15109 19.7867 3.60654C19.7867 3.06198 20.1811 2.74854 20.6715 2.74854H25.1232C25.3002 2.74854 25.7624 2.83015 25.7624 3.36098C25.7624 3.61954 25.7075 3.74231 25.5587 3.9467L22.4684 8.27498H25.0554C25.5443 8.27498 25.9401 8.5877 25.9401 9.13226C25.9401 9.67681 25.5443 9.98953 25.0554 9.98953H20.4945C20.059 9.98953 19.6921 9.77142 19.6921 9.3222C19.6921 9.10409 19.8005 8.90042 19.8684 8.79137L22.9457 4.46381V4.46381Z" fill="#2A6797"/>
<path d="M17.9732 6.1939C17.9753 6.17006 17.9862 6.15201 17.9862 6.12745C17.9862 5.72012 17.6901 5.4854 17.3239 5.4854H15.3869L17.7002 2.24478C17.8128 2.09167 17.8533 1.99995 17.8533 1.80712C17.8533 1.4099 17.5073 1.34851 17.3745 1.34851H14.4827L14.4653 0.976562C14.4653 0.976562 13.7034 1.42578 13.6528 1.45684C13.6023 1.4879 13.3798 1.65834 13.3798 1.99056C13.3798 2.3979 13.6752 2.63262 14.0421 2.63262H15.7444L13.4405 5.87323C13.39 5.95484 13.3083 6.10723 13.3083 6.27045C13.3083 6.60701 13.5828 6.76951 13.9092 6.76951H17.3239C17.4633 6.76951 17.602 6.72834 17.6922 6.67417L18.5047 6.1939H17.9732V6.1939Z" fill="#FFAC33"/>
<path d="M16.5359 2.16644H14.8336C14.4667 2.16644 14.1714 1.93244 14.1714 1.52438C14.1714 1.11705 14.4667 0.882324 14.8336 0.882324H18.1667C18.2996 0.882324 18.6455 0.943713 18.6455 1.34094C18.6455 1.53449 18.6044 1.62621 18.4931 1.77932L16.1799 5.01994H18.1169C18.4816 5.01994 18.7777 5.25394 18.7777 5.66199C18.7777 6.07005 18.4816 6.30405 18.1154 6.30405H14.7007C14.3743 6.30405 14.0999 6.14082 14.0999 5.80499C14.0999 5.64177 14.1815 5.48938 14.232 5.40777L16.5359 2.16644V2.16644Z" fill="#2A6797"/>
<path d="M12.813 8.3212C12.8152 8.30098 12.8238 8.28581 12.8238 8.26415C12.8238 7.91531 12.5703 7.71454 12.2569 7.71454H10.5994L12.5797 4.9412C12.675 4.81048 12.7104 4.73176 12.7104 4.56637C12.7104 4.2262 12.4143 4.17348 12.3009 4.17348H9.82588L9.81071 3.85498L9.11521 4.26592C9.07188 4.29265 8.88121 4.43781 8.88121 4.72309C8.88121 5.07192 9.13399 5.2727 9.44816 5.2727H10.9049L8.93321 8.04604C8.88988 8.11609 8.81982 8.24681 8.81982 8.3862C8.81982 8.67437 9.05527 8.81376 9.33405 8.81376H12.2569C12.376 8.81376 12.4952 8.77837 12.5718 8.73215L13.2673 8.3212H12.813Z" fill="#FFAC33"/>
<path d="M11.5822 4.87412H10.1255C9.81136 4.87412 9.55858 4.67335 9.55858 4.32451C9.55858 3.97568 9.81136 3.7749 10.1255 3.7749H12.9783C13.0917 3.7749 13.3878 3.82762 13.3878 4.16779C13.3878 4.33318 13.3531 4.4119 13.2571 4.54262L11.2767 7.31596H12.9342C13.2477 7.31596 13.5012 7.51674 13.5012 7.86557C13.5012 8.2144 13.2477 8.41518 12.9342 8.41518H10.0114C9.73264 8.41518 9.49719 8.27579 9.49719 7.98762C9.49719 7.84824 9.56653 7.71751 9.61058 7.64746L11.5822 4.87412V4.87412Z" fill="#2A6797"/>
</svg>
