<svg width="27" height="27" viewBox="0 0 27 27" fill="none" xmlns="http://www.w3.org/2000/svg">
<path d="M13.1427 26.792C20.3224 26.792 26.1427 20.9717 26.1427 13.792C26.1427 6.61229 20.3224 0.791992 13.1427 0.791992C5.963 0.791992 0.1427 6.61229 0.1427 13.792C0.1427 20.9717 5.963 26.792 13.1427 26.792Z" fill="#FFCC4D"/>
<path d="M17.8371 14.5143C20.0309 14.5143 21.8093 12.7358 21.8093 10.542C21.8093 8.34825 20.0309 6.56982 17.8371 6.56982C15.6433 6.56982 13.8649 8.34825 13.8649 10.542C13.8649 12.7358 15.6433 14.5143 17.8371 14.5143Z" fill="#F4F7F9"/>
<path d="M8.4483 14.5143C10.6421 14.5143 12.4205 12.7358 12.4205 10.542C12.4205 8.34825 10.6421 6.56982 8.4483 6.56982C6.2545 6.56982 4.47607 8.34825 4.47607 10.542C4.47607 12.7358 6.2545 14.5143 8.4483 14.5143Z" fill="#F4F7F9"/>
<path d="M16.8326 17.7093C14.8371 17.2276 10.4243 17.6659 8.77114 20.8907C8.71192 21.0048 8.74225 21.1456 8.84337 21.2258C8.89248 21.2655 8.95242 21.285 9.01237 21.285C9.07375 21.285 9.13587 21.2641 9.18642 21.2222C11.4138 19.3588 14.5569 19.3588 16.4346 19.3588C17.6155 19.3588 18.2662 19.3588 18.2662 18.8475C18.2662 18.3362 17.757 17.9317 16.8326 17.7093ZM7.72609 10.1808C8.72348 10.1808 9.53164 9.37267 9.53164 8.37528C9.53164 7.47106 8.86503 6.72861 7.99764 6.59717C7.42709 6.66145 6.89553 6.8485 6.42464 7.12872C6.11409 7.453 5.92053 7.89067 5.92053 8.37528C5.92053 9.37267 6.7287 10.1808 7.72609 10.1808ZM17.115 10.1808C18.1124 10.1808 18.9205 9.37267 18.9205 8.37528C18.9205 7.47106 18.2539 6.72861 17.3865 6.59717C16.8167 6.66145 16.2844 6.8485 15.8143 7.12872C15.503 7.453 15.3094 7.89067 15.3094 8.37528C15.3094 9.37267 16.1176 10.1808 17.115 10.1808Z" fill="#65471B"/>
</svg>
