<svg width="27" height="27" viewBox="0 0 27 27" fill="none" xmlns="http://www.w3.org/2000/svg">
<path d="M22.9068 4.59942C27.9834 9.67599 27.9834 17.908 22.9068 22.9846C17.8302 28.0611 9.59895 28.0611 4.52166 22.9846C-0.554909 17.908 -0.554909 9.67599 4.52166 4.59942C9.59823 -0.47715 17.8295 -0.47715 22.9068 4.59942" fill="#FFCB4C"/>
<path d="M14.638 14.7168C12.1145 17.2402 10.1464 18.6197 7.67203 20.2873C7.10797 20.6694 6.27957 21.6805 7.67276 23.0744C10.4584 25.8601 17.1419 26.1417 21.6025 21.6812C26.0637 17.22 25.7827 10.5372 22.9956 7.75083C21.6025 6.35692 20.5906 7.18604 20.2093 7.7501C18.5424 10.2237 17.1622 12.1926 14.638 14.7168V14.7168Z" fill="#65471B"/>
<path d="M9.0658 21.6813C9.0658 21.6813 11.8522 20.2881 16.031 16.1085C20.2106 11.9297 21.603 9.14404 21.603 9.14404C21.603 9.14404 22.9955 13.3236 18.1204 18.1987C13.2454 23.0745 9.0658 21.6813 9.0658 21.6813V21.6813Z" fill="white"/>
<path d="M18.2635 5.59849C18.1617 5.61293 16.5496 5.85633 14.6935 6.77428C14.6487 6.70134 14.5982 6.63128 14.5353 6.56845C14.3468 6.37995 14.1056 6.28028 13.8593 6.26005C14.5144 5.07343 15.2879 4.2833 15.3024 4.26958C15.5826 3.98791 15.5826 3.53002 15.3002 3.24907C15.0178 2.96812 14.5621 2.9674 14.2804 3.24907C14.1677 3.36174 11.5157 6.05205 11.5157 9.37721C11.5157 9.66971 11.6912 9.93261 11.9613 10.0446C12.2307 10.1565 12.542 10.0944 12.7485 9.88783C15.0922 7.54418 18.4354 7.03284 18.4693 7.02779C18.6297 7.00468 18.7698 6.93029 18.876 6.82412C19.0312 6.66884 19.1143 6.44422 19.0811 6.21022C19.0226 5.81516 18.6578 5.54216 18.2635 5.59849V5.59849ZM9.17277 11.7194C5.84761 11.7194 3.1573 14.3714 3.04463 14.4841C2.76296 14.7658 2.76296 15.2222 3.04463 15.5039C3.32558 15.7863 3.78275 15.787 4.06586 15.5061C4.07959 15.4923 4.86971 14.7181 6.05634 14.0638C6.07728 14.3101 6.17623 14.5513 6.36473 14.7398C6.42756 14.8026 6.49762 14.8532 6.57056 14.898C5.65189 16.7534 5.40849 18.3661 5.39405 18.4679C5.33771 18.863 5.61216 19.2285 6.0065 19.2848C6.24123 19.3187 6.4644 19.2357 6.61968 19.0804C6.72584 18.9742 6.80023 18.8334 6.82335 18.6723C6.8284 18.6391 7.32746 15.3089 9.68339 12.953C9.88994 12.7464 9.95133 12.4359 9.84011 12.1657C9.72816 11.8949 9.46527 11.7194 9.17277 11.7194V11.7194Z" fill="#65471B"/>
<path d="M22.4539 9.49838C24.4336 9.73961 26.2341 8.32981 26.4746 6.34945C26.7158 4.36981 25.3068 2.56929 23.3264 2.32806C21.3468 2.08756 15.8087 4.32359 15.7213 5.04077C15.6339 5.75722 20.4743 9.25644 22.4539 9.49838V9.49838ZM9.49421 22.4581C9.73544 24.4378 8.32564 26.2383 6.34528 26.4788C4.36564 26.72 2.56511 25.3109 2.32389 23.3306C2.08266 21.3502 4.31942 15.8121 5.03659 15.7247C5.75305 15.6381 9.25226 20.4785 9.49421 22.4581V22.4581Z" fill="#64AADD"/>
</svg>
